# xmcd
#
# Track frame offsets: 
#        150
#        17423
#        35153
#        58718
#        82845
#        103760
#        129263
#        149728
#        168238
#        185083
#        207473
#        234423
#
# Disc length: 3379 seconds
#
# Revision: 0
# Processed by: cddbd v1.5.2PL0 Copyright (c) Steve Scherf et al.
# Submitted via: ExactAudioCopy v1.0b3
#
DISCID=a50d310c
DTITLE=Various Artist - Ve Mai Nha Xua
DYEAR=1991
DGENRE=
TTITLE0=Huong Lan - Tieng song Huong
TTITLE1=Le Thu - Tinh hoai huong
TTITLE2=Ha Thanh - Ve mai nha xua
TTITLE3=Le Uyen - Chieu tren pha Tam giang
TTITLE4=Bang Chau - Tieng ho mien Nam
TTITLE5=Duy Quang, Thai Hien - Tieng hat song Lo
TTITLE6=Khanh Ly - Que ngheo
TTITLE7=Thanh Mai - Dong An Giang
TTITLE8=Giao Linh - Gio ve mien xuoi
TTITLE9=My The - Ben duyen lanh
TTITLE10=Xuan Son - Ben Xuan
TTITLE11=Thanh Thuy - Huong Binh luu luyen
EXTD=
EXTT0=
EXTT1=
EXTT2=
EXTT3=
EXTT4=
EXTT5=
EXTT6=
EXTT7=
EXTT8=
EXTT9=
EXTT10=
EXTT11=
PLAYORDER=
